<svg xmlns="http://www.w3.org/2000/svg" width="1200" height="84" viewBox="0 0 1200 84" fill="none">
  <defs>
    <linearGradient id="iceGradBroken" x1="600" y1="0" x2="600" y2="84" gradientUnits="userSpaceOnUse">
      <stop offset="0" stop-color="#FFFFFF" stop-opacity="0.96"/>
      <stop offset="0.4" stop-color="#E2F2FF" stop-opacity="0.9"/>
      <stop offset="1" stop-color="#94BFE7" stop-opacity="0.74"/>
    </linearGradient>
    <linearGradient id="iceEdgeBroken" x1="0" y1="0" x2="0" y2="84" gradientUnits="userSpaceOnUse">
      <stop offset="0" stop-color="#F9FDFF" stop-opacity="0.95"/>
      <stop offset="1" stop-color="#78ABDB" stop-opacity="0.76"/>
    </linearGradient>
  </defs>

  <rect x="0" y="0" width="1200" height="8" fill="#ECF7FF" fill-opacity="0.95"/>

  <g>
    <path d="M22 8h19l-8 56-2 9-2-9-7-56Z" fill="url(#iceGradBroken)" stroke="url(#iceEdgeBroken)"/>
    <path d="M68 8h16l-4 34-3 6-3-6-6-34Z" fill="url(#iceGradBroken)" stroke="url(#iceEdgeBroken)"/>
    <path d="M108 8h24l-10 66-2 6-2-6-10-66Z" fill="url(#iceGradBroken)" stroke="url(#iceEdgeBroken)"/>
    <path d="M164 8h13l-4 28-2 5-2-5-5-28Z" fill="url(#iceGradBroken)" stroke="url(#iceEdgeBroken)"/>
    <path d="M202 8h20l-7 49-3 6-3-6-7-49Z" fill="url(#iceGradBroken)" stroke="url(#iceEdgeBroken)"/>

    <path d="M274 8h22l-9 63-2 8-2-8-9-63Z" fill="url(#iceGradBroken)" stroke="url(#iceEdgeBroken)"/>
    <path d="M324 8h14l-4 30-2 5-2-5-6-30Z" fill="url(#iceGradBroken)" stroke="url(#iceEdgeBroken)"/>
    <path d="M360 8h22l-8 52-3 9-3-9-8-52Z" fill="url(#iceGradBroken)" stroke="url(#iceEdgeBroken)"/>
    <path d="M414 8h16l-6 42-2 7-2-7-6-42Z" fill="url(#iceGradBroken)" stroke="url(#iceEdgeBroken)"/>

    <path d="M486 8h19l-7 57-3 7-3-7-6-57Z" fill="url(#iceGradBroken)" stroke="url(#iceEdgeBroken)"/>
    <path d="M532 8h14l-5 31-2 5-2-5-5-31Z" fill="url(#iceGradBroken)" stroke="url(#iceEdgeBroken)"/>
    <path d="M570 8h24l-10 64-2 7-2-7-10-64Z" fill="url(#iceGradBroken)" stroke="url(#iceEdgeBroken)"/>
    <path d="M626 8h16l-5 38-3 7-3-7-5-38Z" fill="url(#iceGradBroken)" stroke="url(#iceEdgeBroken)"/>

    <path d="M700 8h21l-8 61-2 7-3-7-8-61Z" fill="url(#iceGradBroken)" stroke="url(#iceEdgeBroken)"/>
    <path d="M748 8h14l-4 27-3 5-3-5-4-27Z" fill="url(#iceGradBroken)" stroke="url(#iceEdgeBroken)"/>
    <path d="M786 8h24l-9 66-3 7-3-7-9-66Z" fill="url(#iceGradBroken)" stroke="url(#iceEdgeBroken)"/>
    <path d="M842 8h16l-6 44-2 8-2-8-6-44Z" fill="url(#iceGradBroken)" stroke="url(#iceEdgeBroken)"/>

    <path d="M918 8h20l-8 59-2 7-2-7-8-59Z" fill="url(#iceGradBroken)" stroke="url(#iceEdgeBroken)"/>
    <path d="M964 8h14l-4 31-3 5-3-5-4-31Z" fill="url(#iceGradBroken)" stroke="url(#iceEdgeBroken)"/>
    <path d="M1002 8h22l-8 65-3 7-3-7-8-65Z" fill="url(#iceGradBroken)" stroke="url(#iceEdgeBroken)"/>
    <path d="M1056 8h16l-5 39-3 7-3-7-5-39Z" fill="url(#iceGradBroken)" stroke="url(#iceEdgeBroken)"/>

    <path d="M1128 8h20l-8 62-2 7-2-7-8-62Z" fill="url(#iceGradBroken)" stroke="url(#iceEdgeBroken)"/>
    <path d="M1176 8h14l-5 27-2 5-2-5-5-27Z" fill="url(#iceGradBroken)" stroke="url(#iceEdgeBroken)"/>
  </g>

  <g opacity="0.44" fill="#F7FCFF">
    <path d="m129 78 6-7 2 7z"/>
    <path d="m373 69 5-6 2 6z"/>
    <path d="m594 79 5-7 2 7z"/>
    <path d="m808 80 6-8 2 8z"/>
    <path d="m1024 78 5-7 2 7z"/>
  </g>
</svg>
