<svg xmlns="http://www.w3.org/2000/svg" viewBox="0 0 1200 760" role="img" aria-label="Frosted candle table">
  <defs>
    <linearGradient id="bg2" x1="0" x2="1" y1="0" y2="1">
      <stop offset="0" stop-color="#d9ecff"/>
      <stop offset="1" stop-color="#a8c6f2"/>
    </linearGradient>
  </defs>
  <rect width="1200" height="760" fill="url(#bg2)"/>
  <g fill="#ffffff" fill-opacity="0.82">
    <ellipse cx="220" cy="560" rx="220" ry="86"/>
    <ellipse cx="500" cy="590" rx="290" ry="100"/>
    <ellipse cx="840" cy="560" rx="250" ry="90"/>
  </g>
  <g fill="#fbe2b5" fill-opacity="0.9">
    <circle cx="260" cy="500" r="28"/>
    <circle cx="560" cy="520" r="34"/>
    <circle cx="820" cy="500" r="30"/>
    <circle cx="1020" cy="540" r="26"/>
  </g>
  <g stroke="#9fc0ea" stroke-width="6" stroke-linecap="round" fill="none">
    <path d="M620 220c-30 80-110 110-150 170"/>
    <path d="M620 220c40 70 120 120 180 180"/>
    <path d="M620 220c0 120 0 170 0 230"/>
    <path d="M620 260c-90 24-170 18-250 54"/>
    <path d="M620 270c96 20 180 20 270 58"/>
  </g>
</svg>
